<svg xmlns="http://www.w3.org/2000/svg" viewBox="0 0 460 460" width="460" height="460"><circle cx="160.9" cy="161.4" r="1.55" fill="#e9c45e" opacity="0.78"></circle><circle cx="165.6" cy="166.0" r="1.55" fill="#e9c45e" opacity="0.78"></circle><circle cx="170.2" cy="175.4" r="1.55" fill="#e9c45e" opacity="0.79"></circle><circle cx="170.2" cy="170.7" r="1.55" fill="#e9c45e" opacity="0.78"></circle><circle cx="170.3" cy="165.9" r="1.55" fill="#e9c45e" opacity="0.78"></circle><circle cx="172.6" cy="96.8" r="1.55" fill="#e9c45e" opacity="0.11"></circle><circle cx="174.9" cy="184.9" r="1.55" fill="#e9c45e" opacity="0.79"></circle><circle cx="174.9" cy="180.1" r="1.55" fill="#e9c45e" opacity="0.79"></circle><circle cx="174.9" cy="175.3" r="1.55" fill="#e9c45e" opacity="0.79"></circle><circle cx="175.0" cy="170.6" r="1.55" fill="#e9c45e" opacity="0.79"></circle><circle cx="176.3" cy="114.7" r="1.55" fill="#e9c45e" opacity="0.53"></circle><circle cx="176.5" cy="110.2" r="1.55" fill="#e9c45e" opacity="0.43"></circle><circle cx="176.7" cy="105.7" r="1.55" fill="#e9c45e" opacity="0.32"></circle><circle cx="176.9" cy="101.2" r="1.55" fill="#e9c45e" opacity="0.22"></circle><circle cx="177.1" cy="96.8" r="1.55" fill="#e9c45e" opacity="0.12"></circle><circle cx="177.4" cy="92.3" r="1.55" fill="#e9c45e" opacity="0.11"></circle><circle cx="179.6" cy="189.6" r="1.55" fill="#e9c45e" opacity="0.79"></circle><circle cx="179.6" cy="184.8" r="1.55" fill="#e9c45e" opacity="0.79"></circle><circle cx="179.6" cy="180.0" r="1.55" fill="#e9c45e" opacity="0.79"></circle><circle cx="179.7" cy="175.2" r="1.55" fill="#e9c45e" opacity="0.79"></circle><circle cx="180.4" cy="133.0" r="1.55" fill="#e9c45e" opacity="0.77"></circle><circle cx="180.5" cy="128.4" r="1.55" fill="#e9c45e" opacity="0.77"></circle><circle cx="180.7" cy="123.8" r="1.55" fill="#e9c45e" opacity="0.77"></circle><circle cx="180.8" cy="119.2" r="1.55" fill="#e9c45e" opacity="0.69"></circle><circle cx="181.0" cy="114.7" r="1.55" fill="#e9c45e" opacity="0.58"></circle><circle cx="181.1" cy="110.1" r="1.55" fill="#e9c45e" opacity="0.47"></circle><circle cx="181.3" cy="105.6" r="1.55" fill="#e9c45e" opacity="0.37"></circle><circle cx="181.5" cy="101.1" r="1.55" fill="#e9c45e" opacity="0.26"></circle><circle cx="181.7" cy="96.7" r="1.55" fill="#e9c45e" opacity="0.16"></circle><circle cx="181.9" cy="92.3" r="1.55" fill="#e9c45e" opacity="0.11"></circle><circle cx="184.4" cy="194.3" r="1.55" fill="#e9c45e" opacity="0.79"></circle><circle cx="184.4" cy="189.5" r="1.55" fill="#e9c45e" opacity="0.79"></circle><circle cx="184.4" cy="184.7" r="1.55" fill="#e9c45e" opacity="0.79"></circle><circle cx="184.4" cy="179.9" r="1.55" fill="#e9c45e" opacity="0.79"></circle><circle cx="184.8" cy="146.9" r="1.55" fill="#e9c45e" opacity="0.78"></circle><circle cx="184.9" cy="142.2" r="1.55" fill="#e9c45e" opacity="0.78"></circle><circle cx="185.0" cy="137.5" r="1.55" fill="#e9c45e" opacity="0.78"></circle><circle cx="185.1" cy="132.9" r="1.55" fill="#e9c45e" opacity="0.78"></circle><circle cx="185.2" cy="128.3" r="1.55" fill="#e9c45e" opacity="0.77"></circle><circle cx="185.3" cy="123.7" r="1.55" fill="#e9c45e" opacity="0.77"></circle><circle cx="185.5" cy="119.1" r="1.55" fill="#e9c45e" opacity="0.73"></circle><circle cx="185.6" cy="114.6" r="1.55" fill="#e9c45e" opacity="0.62"></circle><circle cx="185.8" cy="110.1" r="1.55" fill="#e9c45e" opacity="0.51"></circle><circle cx="185.9" cy="105.6" r="1.55" fill="#e9c45e" opacity="0.41"></circle><circle cx="186.1" cy="101.1" r="1.55" fill="#e9c45e" opacity="0.30"></circle><circle cx="186.3" cy="96.6" r="1.55" fill="#e9c45e" opacity="0.19"></circle><circle cx="186.5" cy="92.2" r="1.55" fill="#e9c45e" opacity="0.11"></circle><circle cx="189.2" cy="199.0" r="1.55" fill="#e9c45e" opacity="0.79"></circle><circle cx="189.2" cy="194.2" r="1.55" fill="#e9c45e" opacity="0.79"></circle><circle cx="189.2" cy="189.4" r="1.55" fill="#e9c45e" opacity="0.79"></circle><circle cx="189.2" cy="184.6" r="1.55" fill="#e9c45e" opacity="0.79"></circle><circle cx="189.4" cy="156.2" r="1.55" fill="#e9c45e" opacity="0.78"></circle><circle cx="189.5" cy="151.5" r="1.55" fill="#e9c45e" opacity="0.78"></circle><circle cx="189.5" cy="146.8" r="1.55" fill="#e9c45e" opacity="0.78"></circle><circle cx="189.6" cy="142.1" r="1.55" fill="#e9c45e" opacity="0.78"></circle><circle cx="189.9" cy="128.2" r="1.55" fill="#e9c45e" opacity="0.77"></circle><circle cx="190.0" cy="123.6" r="1.55" fill="#e9c45e" opacity="0.77"></circle><circle cx="190.1" cy="119.1" r="1.55" fill="#e9c45e" opacity="0.77"></circle><circle cx="190.3" cy="114.5" r="1.55" fill="#e9c45e" opacity="0.66"></circle><circle cx="190.4" cy="110.0" r="1.55" fill="#e9c45e" opacity="0.55"></circle><circle cx="190.5" cy="105.5" r="1.55" fill="#e9c45e" opacity="0.44"></circle><circle cx="190.7" cy="101.0" r="1.55" fill="#e9c45e" opacity="0.33"></circle><circle cx="190.9" cy="96.6" r="1.55" fill="#e9c45e" opacity="0.23"></circle><circle cx="191.0" cy="92.1" r="1.55" fill="#e9c45e" opacity="0.12"></circle><circle cx="191.2" cy="87.7" r="1.55" fill="#e9c45e" opacity="0.11"></circle><circle cx="194.0" cy="203.7" r="1.55" fill="#e9c45e" opacity="0.80"></circle><circle cx="193.9" cy="198.9" r="1.55" fill="#e9c45e" opacity="0.80"></circle><circle cx="193.9" cy="194.1" r="1.55" fill="#e9c45e" opacity="0.79"></circle><circle cx="193.9" cy="189.4" r="1.55" fill="#e9c45e" opacity="0.79"></circle><circle cx="194.1" cy="165.6" r="1.55" fill="#e9c45e" opacity="0.79"></circle><circle cx="194.1" cy="160.8" r="1.55" fill="#e9c45e" opacity="0.79"></circle><circle cx="194.1" cy="156.1" r="1.55" fill="#e9c45e" opacity="0.79"></circle><circle cx="194.2" cy="151.4" r="1.55" fill="#e9c45e" opacity="0.78"></circle><circle cx="194.9" cy="114.5" r="1.55" fill="#e9c45e" opacity="0.70"></circle><circle cx="195.0" cy="109.9" r="1.55" fill="#e9c45e" opacity="0.59"></circle><circle cx="195.2" cy="105.4" r="1.55" fill="#e9c45e" opacity="0.47"></circle><circle cx="195.3" cy="101.0" r="1.55" fill="#e9c45e" opacity="0.36"></circle><circle cx="195.4" cy="96.5" r="1.55" fill="#e9c45e" opacity="0.26"></circle><circle cx="195.6" cy="92.1" r="1.55" fill="#e9c45e" opacity="0.15"></circle><circle cx="195.7" cy="87.7" r="1.55" fill="#e9c45e" opacity="0.11"></circle><circle cx="198.8" cy="208.5" r="1.55" fill="#e9c45e" opacity="0.80"></circle><circle cx="198.7" cy="203.7" r="1.55" fill="#e9c45e" opacity="0.80"></circle><circle cx="198.7" cy="198.9" r="1.55" fill="#e9c45e" opacity="0.80"></circle><circle cx="198.7" cy="194.1" r="1.55" fill="#e9c45e" opacity="0.80"></circle><circle cx="198.8" cy="175.0" r="1.55" fill="#e9c45e" opacity="0.79"></circle><circle cx="198.8" cy="170.2" r="1.55" fill="#e9c45e" opacity="0.79"></circle><circle cx="198.8" cy="165.5" r="1.55" fill="#e9c45e" opacity="0.79"></circle><circle cx="198.9" cy="160.8" r="1.55" fill="#e9c45e" opacity="0.79"></circle><circle cx="199.4" cy="123.5" r="1.55" fill="#e9c45e" opacity="0.77"></circle><circle cx="199.5" cy="119.0" r="1.55" fill="#e9c45e" opacity="0.77"></circle><circle cx="199.6" cy="114.4" r="1.55" fill="#e9c45e" opacity="0.73"></circle><circle cx="199.7" cy="109.9" r="1.55" fill="#e9c45e" opacity="0.62"></circle><circle cx="199.8" cy="105.4" r="1.55" fill="#e9c45e" opacity="0.50"></circle><circle cx="199.9" cy="100.9" r="1.55" fill="#e9c45e" opacity="0.39"></circle><circle cx="200.0" cy="96.5" r="1.55" fill="#e9c45e" opacity="0.28"></circle><circle cx="200.2" cy="92.0" r="1.55" fill="#e9c45e" opacity="0.17"></circle><circle cx="200.3" cy="87.6" r="1.55" fill="#e9c45e" opacity="0.11"></circle><circle cx="203.6" cy="213.3" r="1.55" fill="#e9c45e" opacity="0.80"></circle><circle cx="203.6" cy="208.4" r="1.55" fill="#e9c45e" opacity="0.80"></circle><circle cx="203.5" cy="203.6" r="1.55" fill="#e9c45e" opacity="0.80"></circle><circle cx="203.5" cy="198.8" r="1.55" fill="#e9c45e" opacity="0.80"></circle><circle cx="203.6" cy="175.0" r="1.55" fill="#e9c45e" opacity="0.79"></circle><circle cx="203.6" cy="170.2" r="1.55" fill="#e9c45e" opacity="0.79"></circle><circle cx="204.0" cy="132.7" r="1.55" fill="#e9c45e" opacity="0.78"></circle><circle cx="204.0" cy="128.1" r="1.55" fill="#e9c45e" opacity="0.78"></circle><circle cx="204.1" cy="123.5" r="1.55" fill="#e9c45e" opacity="0.77"></circle><circle cx="204.2" cy="118.9" r="1.55" fill="#e9c45e" opacity="0.77"></circle><circle cx="204.3" cy="114.4" r="1.55" fill="#e9c45e" opacity="0.76"></circle><circle cx="204.3" cy="109.8" r="1.55" fill="#e9c45e" opacity="0.64"></circle><circle cx="204.4" cy="105.3" r="1.55" fill="#e9c45e" opacity="0.53"></circle><circle cx="204.5" cy="100.9" r="1.55" fill="#e9c45e" opacity="0.42"></circle><circle cx="204.6" cy="96.4" r="1.55" fill="#e9c45e" opacity="0.30"></circle><circle cx="204.7" cy="92.0" r="1.55" fill="#e9c45e" opacity="0.19"></circle><circle cx="204.9" cy="87.6" r="1.55" fill="#e9c45e" opacity="0.11"></circle><circle cx="208.4" cy="218.0" r="1.55" fill="#e9c45e" opacity="0.80"></circle><circle cx="208.4" cy="213.2" r="1.55" fill="#e9c45e" opacity="0.80"></circle><circle cx="208.4" cy="208.4" r="1.55" fill="#e9c45e" opacity="0.80"></circle><circle cx="208.4" cy="179.7" r="1.55" fill="#e9c45e" opacity="0.79"></circle><circle cx="208.6" cy="137.3" r="1.55" fill="#e9c45e" opacity="0.78"></circle><circle cx="208.7" cy="132.7" r="1.55" fill="#e9c45e" opacity="0.78"></circle><circle cx="208.7" cy="128.1" r="1.55" fill="#e9c45e" opacity="0.78"></circle><circle cx="208.8" cy="123.5" r="1.55" fill="#e9c45e" opacity="0.77"></circle><circle cx="208.9" cy="118.9" r="1.55" fill="#e9c45e" opacity="0.77"></circle><circle cx="208.9" cy="114.3" r="1.55" fill="#e9c45e" opacity="0.77"></circle><circle cx="209.0" cy="109.8" r="1.55" fill="#e9c45e" opacity="0.67"></circle><circle cx="209.1" cy="105.3" r="1.55" fill="#e9c45e" opacity="0.55"></circle><circle cx="209.2" cy="100.8" r="1.55" fill="#e9c45e" opacity="0.44"></circle><circle cx="209.2" cy="96.4" r="1.55" fill="#e9c45e" opacity="0.32"></circle><circle cx="209.3" cy="91.9" r="1.55" fill="#e9c45e" opacity="0.21"></circle><circle cx="209.4" cy="87.5" r="1.55" fill="#e9c45e" opacity="0.11"></circle><circle cx="213.2" cy="222.8" r="1.55" fill="#e9c45e" opacity="0.80"></circle><circle cx="213.2" cy="218.0" r="1.55" fill="#e9c45e" opacity="0.80"></circle><circle cx="213.2" cy="213.2" r="1.55" fill="#e9c45e" opacity="0.80"></circle><circle cx="213.3" cy="141.9" r="1.55" fill="#e9c45e" opacity="0.78"></circle><circle cx="213.4" cy="137.3" r="1.55" fill="#e9c45e" opacity="0.78"></circle><circle cx="213.4" cy="132.6" r="1.55" fill="#e9c45e" opacity="0.78"></circle><circle cx="213.5" cy="128.0" r="1.55" fill="#e9c45e" opacity="0.78"></circle><circle cx="213.5" cy="123.4" r="1.55" fill="#e9c45e" opacity="0.77"></circle><circle cx="213.6" cy="118.9" r="1.55" fill="#e9c45e" opacity="0.77"></circle><circle cx="213.6" cy="114.3" r="1.55" fill="#e9c45e" opacity="0.77"></circle><circle cx="213.7" cy="109.8" r="1.55" fill="#e9c45e" opacity="0.68"></circle><circle cx="213.7" cy="105.3" r="1.55" fill="#e9c45e" opacity="0.57"></circle><circle cx="213.8" cy="100.8" r="1.55" fill="#e9c45e" opacity="0.45"></circle><circle cx="213.8" cy="96.3" r="1.55" fill="#e9c45e" opacity="0.34"></circle><circle cx="213.9" cy="91.9" r="1.55" fill="#e9c45e" opacity="0.23"></circle><circle cx="214.0" cy="87.5" r="1.55" fill="#e9c45e" opacity="0.12"></circle><circle cx="214.1" cy="83.1" r="1.55" fill="#e9c45e" opacity="0.11"></circle><circle cx="218.0" cy="222.8" r="1.55" fill="#e9c45e" opacity="0.80"></circle><circle cx="218.1" cy="141.9" r="1.55" fill="#e9c45e" opacity="0.78"></circle><circle cx="218.1" cy="137.2" r="1.55" fill="#e9c45e" opacity="0.78"></circle><circle cx="218.1" cy="132.6" r="1.55" fill="#e9c45e" opacity="0.78"></circle><circle cx="218.2" cy="128.0" r="1.55" fill="#e9c45e" opacity="0.78"></circle><circle cx="218.2" cy="123.4" r="1.55" fill="#e9c45e" opacity="0.78"></circle><circle cx="218.2" cy="118.8" r="1.55" fill="#e9c45e" opacity="0.77"></circle><circle cx="218.3" cy="114.3" r="1.55" fill="#e9c45e" opacity="0.77"></circle><circle cx="218.3" cy="109.8" r="1.55" fill="#e9c45e" opacity="0.70"></circle><circle cx="218.4" cy="105.3" r="1.55" fill="#e9c45e" opacity="0.58"></circle><circle cx="218.4" cy="100.8" r="1.55" fill="#e9c45e" opacity="0.46"></circle><circle cx="218.5" cy="96.3" r="1.55" fill="#e9c45e" opacity="0.35"></circle><circle cx="218.5" cy="91.9" r="1.55" fill="#e9c45e" opacity="0.24"></circle><circle cx="218.6" cy="87.5" r="1.55" fill="#e9c45e" opacity="0.13"></circle><circle cx="218.6" cy="83.1" r="1.55" fill="#e9c45e" opacity="0.11"></circle><circle cx="222.8" cy="232.4" r="1.55" fill="#e9c45e" opacity="0.80"></circle><circle cx="222.9" cy="137.2" r="1.55" fill="#e9c45e" opacity="0.78"></circle><circle cx="222.9" cy="132.6" r="1.55" fill="#e9c45e" opacity="0.78"></circle><circle cx="222.9" cy="128.0" r="1.55" fill="#e9c45e" opacity="0.78"></circle><circle cx="222.9" cy="123.4" r="1.55" fill="#e9c45e" opacity="0.78"></circle><circle cx="222.9" cy="118.8" r="1.55" fill="#e9c45e" opacity="0.77"></circle><circle cx="223.0" cy="114.3" r="1.55" fill="#e9c45e" opacity="0.77"></circle><circle cx="223.0" cy="109.8" r="1.55" fill="#e9c45e" opacity="0.71"></circle><circle cx="223.0" cy="105.2" r="1.55" fill="#e9c45e" opacity="0.59"></circle><circle cx="223.0" cy="100.8" r="1.55" fill="#e9c45e" opacity="0.47"></circle><circle cx="223.1" cy="96.3" r="1.55" fill="#e9c45e" opacity="0.36"></circle><circle cx="223.1" cy="91.9" r="1.55" fill="#e9c45e" opacity="0.25"></circle><circle cx="223.1" cy="87.5" r="1.55" fill="#e9c45e" opacity="0.13"></circle><circle cx="223.2" cy="83.1" r="1.55" fill="#e9c45e" opacity="0.11"></circle><circle cx="227.6" cy="237.2" r="1.55" fill="#e9c45e" opacity="0.80"></circle><circle cx="227.6" cy="232.4" r="1.55" fill="#e9c45e" opacity="0.80"></circle><circle cx="227.6" cy="132.6" r="1.55" fill="#e9c45e" opacity="0.78"></circle><circle cx="227.6" cy="128.0" r="1.55" fill="#e9c45e" opacity="0.78"></circle><circle cx="227.6" cy="123.4" r="1.55" fill="#e9c45e" opacity="0.78"></circle><circle cx="227.6" cy="118.8" r="1.55" fill="#e9c45e" opacity="0.77"></circle><circle cx="227.7" cy="114.3" r="1.55" fill="#e9c45e" opacity="0.77"></circle><circle cx="227.7" cy="109.7" r="1.55" fill="#e9c45e" opacity="0.71"></circle><circle cx="227.7" cy="105.2" r="1.55" fill="#e9c45e" opacity="0.59"></circle><circle cx="227.7" cy="100.8" r="1.55" fill="#e9c45e" opacity="0.48"></circle><circle cx="227.7" cy="96.3" r="1.55" fill="#e9c45e" opacity="0.36"></circle><circle cx="227.7" cy="91.9" r="1.55" fill="#e9c45e" opacity="0.25"></circle><circle cx="227.7" cy="87.5" r="1.55" fill="#e9c45e" opacity="0.14"></circle><circle cx="227.7" cy="83.1" r="1.55" fill="#e9c45e" opacity="0.11"></circle><circle cx="232.4" cy="237.2" r="1.55" fill="#e9c45e" opacity="0.80"></circle><circle cx="232.4" cy="232.4" r="1.55" fill="#e9c45e" opacity="0.80"></circle><circle cx="232.4" cy="118.8" r="1.55" fill="#e9c45e" opacity="0.77"></circle><circle cx="232.3" cy="114.3" r="1.55" fill="#e9c45e" opacity="0.77"></circle><circle cx="232.3" cy="109.7" r="1.55" fill="#e9c45e" opacity="0.71"></circle><circle cx="232.3" cy="105.2" r="1.55" fill="#e9c45e" opacity="0.59"></circle><circle cx="232.3" cy="100.8" r="1.55" fill="#e9c45e" opacity="0.48"></circle><circle cx="232.3" cy="96.3" r="1.55" fill="#e9c45e" opacity="0.36"></circle><circle cx="232.3" cy="91.9" r="1.55" fill="#e9c45e" opacity="0.25"></circle><circle cx="232.3" cy="87.5" r="1.55" fill="#e9c45e" opacity="0.14"></circle><circle cx="232.3" cy="83.1" r="1.55" fill="#e9c45e" opacity="0.11"></circle><circle cx="237.2" cy="237.2" r="1.55" fill="#e9c45e" opacity="0.80"></circle><circle cx="237.2" cy="232.4" r="1.55" fill="#e9c45e" opacity="0.80"></circle><circle cx="237.0" cy="105.2" r="1.55" fill="#e9c45e" opacity="0.59"></circle><circle cx="237.0" cy="100.8" r="1.55" fill="#e9c45e" opacity="0.47"></circle><circle cx="236.9" cy="96.3" r="1.55" fill="#e9c45e" opacity="0.36"></circle><circle cx="236.9" cy="91.9" r="1.55" fill="#e9c45e" opacity="0.25"></circle><circle cx="236.9" cy="87.5" r="1.55" fill="#e9c45e" opacity="0.13"></circle><circle cx="236.8" cy="83.1" r="1.55" fill="#e9c45e" opacity="0.11"></circle><circle cx="241.9" cy="237.2" r="1.55" fill="#e9c45e" opacity="0.80"></circle><circle cx="242.0" cy="232.4" r="1.55" fill="#e9c45e" opacity="0.80"></circle><circle cx="241.5" cy="91.9" r="1.55" fill="#e9c45e" opacity="0.24"></circle><circle cx="241.4" cy="87.5" r="1.55" fill="#e9c45e" opacity="0.13"></circle><circle cx="241.4" cy="83.1" r="1.55" fill="#e9c45e" opacity="0.11"></circle><circle cx="246.7" cy="237.3" r="1.55" fill="#e9c45e" opacity="0.80"></circle><circle cx="246.7" cy="232.5" r="1.55" fill="#e9c45e" opacity="0.80"></circle><circle cx="246.9" cy="198.8" r="1.55" fill="#e9c45e" opacity="0.80"></circle><circle cx="246.9" cy="194.0" r="1.55" fill="#e9c45e" opacity="0.80"></circle><circle cx="246.9" cy="189.2" r="1.55" fill="#e9c45e" opacity="0.80"></circle><circle cx="246.8" cy="184.4" r="1.55" fill="#e9c45e" opacity="0.80"></circle><circle cx="251.5" cy="237.3" r="1.55" fill="#e9c45e" opacity="0.80"></circle><circle cx="251.5" cy="232.5" r="1.55" fill="#e9c45e" opacity="0.80"></circle><circle cx="251.7" cy="203.6" r="1.55" fill="#e9c45e" opacity="0.80"></circle><circle cx="251.7" cy="198.8" r="1.55" fill="#e9c45e" opacity="0.80"></circle><circle cx="251.7" cy="194.0" r="1.55" fill="#e9c45e" opacity="0.80"></circle><circle cx="251.7" cy="189.2" r="1.55" fill="#e9c45e" opacity="0.80"></circle><circle cx="251.7" cy="184.4" r="1.55" fill="#e9c45e" opacity="0.79"></circle><circle cx="251.6" cy="179.7" r="1.55" fill="#e9c45e" opacity="0.79"></circle><circle cx="256.2" cy="237.3" r="1.55" fill="#e9c45e" opacity="0.80"></circle><circle cx="256.3" cy="232.5" r="1.55" fill="#e9c45e" opacity="0.80"></circle><circle cx="256.4" cy="208.4" r="1.55" fill="#e9c45e" opacity="0.80"></circle><circle cx="256.5" cy="203.6" r="1.55" fill="#e9c45e" opacity="0.80"></circle><circle cx="256.5" cy="198.8" r="1.55" fill="#e9c45e" opacity="0.80"></circle><circle cx="256.5" cy="194.0" r="1.55" fill="#e9c45e" opacity="0.80"></circle><circle cx="256.5" cy="189.3" r="1.55" fill="#e9c45e" opacity="0.80"></circle><circle cx="256.5" cy="184.5" r="1.55" fill="#e9c45e" opacity="0.79"></circle><circle cx="256.4" cy="179.7" r="1.55" fill="#e9c45e" opacity="0.79"></circle><circle cx="256.4" cy="175.0" r="1.55" fill="#e9c45e" opacity="0.79"></circle><circle cx="260.9" cy="242.2" r="1.55" fill="#e9c45e" opacity="0.80"></circle><circle cx="261.0" cy="237.4" r="1.55" fill="#e9c45e" opacity="0.80"></circle><circle cx="261.2" cy="213.3" r="1.55" fill="#e9c45e" opacity="0.80"></circle><circle cx="261.2" cy="208.5" r="1.55" fill="#e9c45e" opacity="0.80"></circle><circle cx="261.3" cy="203.7" r="1.55" fill="#e9c45e" opacity="0.80"></circle><circle cx="261.3" cy="198.9" r="1.55" fill="#e9c45e" opacity="0.80"></circle><circle cx="261.3" cy="194.1" r="1.55" fill="#e9c45e" opacity="0.80"></circle><circle cx="261.3" cy="189.3" r="1.55" fill="#e9c45e" opacity="0.79"></circle><circle cx="261.3" cy="184.5" r="1.55" fill="#e9c45e" opacity="0.79"></circle><circle cx="261.2" cy="179.8" r="1.55" fill="#e9c45e" opacity="0.79"></circle><circle cx="261.2" cy="175.0" r="1.55" fill="#e9c45e" opacity="0.79"></circle><circle cx="265.7" cy="242.2" r="1.55" fill="#e9c45e" opacity="0.80"></circle><circle cx="265.8" cy="237.4" r="1.55" fill="#e9c45e" opacity="0.80"></circle><circle cx="266.0" cy="213.4" r="1.55" fill="#e9c45e" opacity="0.80"></circle><circle cx="266.0" cy="208.5" r="1.55" fill="#e9c45e" opacity="0.80"></circle><circle cx="266.0" cy="203.7" r="1.55" fill="#e9c45e" opacity="0.80"></circle><circle cx="266.1" cy="198.9" r="1.55" fill="#e9c45e" opacity="0.80"></circle><circle cx="266.1" cy="194.1" r="1.55" fill="#e9c45e" opacity="0.79"></circle><circle cx="266.1" cy="189.4" r="1.55" fill="#e9c45e" opacity="0.79"></circle><circle cx="266.1" cy="184.6" r="1.55" fill="#e9c45e" opacity="0.79"></circle><circle cx="266.0" cy="179.8" r="1.55" fill="#e9c45e" opacity="0.79"></circle><circle cx="266.0" cy="175.0" r="1.55" fill="#e9c45e" opacity="0.79"></circle><circle cx="266.0" cy="170.3" r="1.55" fill="#e9c45e" opacity="0.79"></circle><circle cx="270.4" cy="242.3" r="1.55" fill="#e9c45e" opacity="0.80"></circle><circle cx="270.5" cy="237.5" r="1.55" fill="#e9c45e" opacity="0.80"></circle><circle cx="270.8" cy="213.4" r="1.55" fill="#e9c45e" opacity="0.80"></circle><circle cx="270.8" cy="208.6" r="1.55" fill="#e9c45e" opacity="0.80"></circle><circle cx="270.8" cy="203.8" r="1.55" fill="#e9c45e" opacity="0.80"></circle><circle cx="270.8" cy="199.0" r="1.55" fill="#e9c45e" opacity="0.79"></circle><circle cx="270.8" cy="194.2" r="1.55" fill="#e9c45e" opacity="0.79"></circle><circle cx="270.8" cy="189.4" r="1.55" fill="#e9c45e" opacity="0.79"></circle><circle cx="270.8" cy="184.6" r="1.55" fill="#e9c45e" opacity="0.79"></circle><circle cx="270.8" cy="179.9" r="1.55" fill="#e9c45e" opacity="0.79"></circle><circle cx="270.8" cy="175.1" r="1.55" fill="#e9c45e" opacity="0.79"></circle><circle cx="270.8" cy="170.4" r="1.55" fill="#e9c45e" opacity="0.79"></circle><circle cx="270.7" cy="165.6" r="1.55" fill="#e9c45e" opacity="0.79"></circle><circle cx="271.4" cy="341.5" r="1.55" fill="#e9c45e" opacity="0.75"></circle><circle cx="271.6" cy="336.9" r="1.55" fill="#e9c45e" opacity="0.77"></circle><circle cx="271.9" cy="332.3" r="1.55" fill="#e9c45e" opacity="0.77"></circle><circle cx="272.1" cy="327.7" r="1.55" fill="#e9c45e" opacity="0.78"></circle><circle cx="275.2" cy="242.4" r="1.55" fill="#e9c45e" opacity="0.80"></circle><circle cx="275.2" cy="237.5" r="1.55" fill="#e9c45e" opacity="0.80"></circle><circle cx="275.5" cy="213.5" r="1.55" fill="#e9c45e" opacity="0.80"></circle><circle cx="275.6" cy="208.7" r="1.55" fill="#e9c45e" opacity="0.79"></circle><circle cx="275.6" cy="203.9" r="1.55" fill="#e9c45e" opacity="0.79"></circle><circle cx="275.6" cy="199.1" r="1.55" fill="#e9c45e" opacity="0.79"></circle><circle cx="275.6" cy="194.3" r="1.55" fill="#e9c45e" opacity="0.79"></circle><circle cx="275.6" cy="189.5" r="1.55" fill="#e9c45e" opacity="0.79"></circle><circle cx="275.6" cy="184.7" r="1.55" fill="#e9c45e" opacity="0.79"></circle><circle cx="275.6" cy="179.9" r="1.55" fill="#e9c45e" opacity="0.79"></circle><circle cx="275.6" cy="175.2" r="1.55" fill="#e9c45e" opacity="0.79"></circle><circle cx="275.5" cy="170.4" r="1.55" fill="#e9c45e" opacity="0.79"></circle><circle cx="275.5" cy="165.7" r="1.55" fill="#e9c45e" opacity="0.79"></circle><circle cx="273.7" cy="368.5" r="1.55" fill="#e9c45e" opacity="0.11"></circle><circle cx="274.1" cy="364.0" r="1.55" fill="#e9c45e" opacity="0.17"></circle><circle cx="274.4" cy="359.6" r="1.55" fill="#e9c45e" opacity="0.28"></circle><circle cx="274.7" cy="355.1" r="1.55" fill="#e9c45e" opacity="0.38"></circle><circle cx="275.1" cy="350.6" r="1.55" fill="#e9c45e" opacity="0.49"></circle><circle cx="275.4" cy="346.1" r="1.55" fill="#e9c45e" opacity="0.60"></circle><circle cx="275.7" cy="341.5" r="1.55" fill="#e9c45e" opacity="0.70"></circle><circle cx="276.0" cy="337.0" r="1.55" fill="#e9c45e" opacity="0.77"></circle><circle cx="276.3" cy="332.4" r="1.55" fill="#e9c45e" opacity="0.77"></circle><circle cx="276.5" cy="327.8" r="1.55" fill="#e9c45e" opacity="0.77"></circle><circle cx="276.8" cy="323.1" r="1.55" fill="#e9c45e" opacity="0.78"></circle><circle cx="279.8" cy="247.2" r="1.55" fill="#e9c45e" opacity="0.79"></circle><circle cx="280.3" cy="208.7" r="1.55" fill="#e9c45e" opacity="0.79"></circle><circle cx="280.4" cy="203.9" r="1.55" fill="#e9c45e" opacity="0.79"></circle><circle cx="280.4" cy="199.1" r="1.55" fill="#e9c45e" opacity="0.79"></circle><circle cx="280.4" cy="194.3" r="1.55" fill="#e9c45e" opacity="0.79"></circle><circle cx="280.4" cy="189.6" r="1.55" fill="#e9c45e" opacity="0.79"></circle><circle cx="280.4" cy="184.8" r="1.55" fill="#e9c45e" opacity="0.79"></circle><circle cx="280.4" cy="180.0" r="1.55" fill="#e9c45e" opacity="0.79"></circle><circle cx="280.3" cy="175.2" r="1.55" fill="#e9c45e" opacity="0.79"></circle><circle cx="280.3" cy="170.5" r="1.55" fill="#e9c45e" opacity="0.79"></circle><circle cx="280.2" cy="165.8" r="1.55" fill="#e9c45e" opacity="0.79"></circle><circle cx="277.9" cy="368.5" r="1.55" fill="#e9c45e" opacity="0.11"></circle><circle cx="278.2" cy="364.1" r="1.55" fill="#e9c45e" opacity="0.14"></circle><circle cx="278.6" cy="359.7" r="1.55" fill="#e9c45e" opacity="0.24"></circle><circle cx="279.0" cy="355.2" r="1.55" fill="#e9c45e" opacity="0.34"></circle><circle cx="279.3" cy="350.7" r="1.55" fill="#e9c45e" opacity="0.45"></circle><circle cx="279.7" cy="346.2" r="1.55" fill="#e9c45e" opacity="0.55"></circle><circle cx="280.0" cy="341.6" r="1.55" fill="#e9c45e" opacity="0.66"></circle><circle cx="280.3" cy="337.0" r="1.55" fill="#e9c45e" opacity="0.76"></circle><circle cx="280.6" cy="332.5" r="1.55" fill="#e9c45e" opacity="0.77"></circle><circle cx="280.9" cy="327.9" r="1.55" fill="#e9c45e" opacity="0.77"></circle><circle cx="281.2" cy="323.2" r="1.55" fill="#e9c45e" opacity="0.78"></circle><circle cx="284.5" cy="247.3" r="1.55" fill="#e9c45e" opacity="0.79"></circle><circle cx="285.1" cy="208.8" r="1.55" fill="#e9c45e" opacity="0.79"></circle><circle cx="285.1" cy="204.0" r="1.55" fill="#e9c45e" opacity="0.79"></circle><circle cx="285.2" cy="199.2" r="1.55" fill="#e9c45e" opacity="0.79"></circle><circle cx="285.2" cy="194.4" r="1.55" fill="#e9c45e" opacity="0.79"></circle><circle cx="285.2" cy="189.6" r="1.55" fill="#e9c45e" opacity="0.79"></circle><circle cx="285.1" cy="184.9" r="1.55" fill="#e9c45e" opacity="0.79"></circle><circle cx="285.1" cy="180.1" r="1.55" fill="#e9c45e" opacity="0.79"></circle><circle cx="285.1" cy="175.3" r="1.55" fill="#e9c45e" opacity="0.79"></circle><circle cx="285.0" cy="170.6" r="1.55" fill="#e9c45e" opacity="0.79"></circle><circle cx="285.0" cy="165.8" r="1.55" fill="#e9c45e" opacity="0.78"></circle><circle cx="282.4" cy="364.2" r="1.55" fill="#e9c45e" opacity="0.11"></circle><circle cx="282.8" cy="359.7" r="1.55" fill="#e9c45e" opacity="0.20"></circle><circle cx="283.2" cy="355.3" r="1.55" fill="#e9c45e" opacity="0.30"></circle><circle cx="283.6" cy="350.8" r="1.55" fill="#e9c45e" opacity="0.40"></circle><circle cx="283.9" cy="346.2" r="1.55" fill="#e9c45e" opacity="0.51"></circle><circle cx="284.3" cy="341.7" r="1.55" fill="#e9c45e" opacity="0.61"></circle><circle cx="284.6" cy="337.1" r="1.55" fill="#e9c45e" opacity="0.71"></circle><circle cx="285.0" cy="332.5" r="1.55" fill="#e9c45e" opacity="0.77"></circle><circle cx="285.3" cy="327.9" r="1.55" fill="#e9c45e" opacity="0.77"></circle><circle cx="285.6" cy="323.3" r="1.55" fill="#e9c45e" opacity="0.77"></circle><circle cx="285.9" cy="318.7" r="1.55" fill="#e9c45e" opacity="0.78"></circle><circle cx="289.2" cy="247.4" r="1.55" fill="#e9c45e" opacity="0.79"></circle><circle cx="289.9" cy="204.1" r="1.55" fill="#e9c45e" opacity="0.79"></circle><circle cx="289.9" cy="199.3" r="1.55" fill="#e9c45e" opacity="0.79"></circle><circle cx="289.9" cy="194.5" r="1.55" fill="#e9c45e" opacity="0.79"></circle><circle cx="289.9" cy="189.7" r="1.55" fill="#e9c45e" opacity="0.79"></circle><circle cx="289.9" cy="184.9" r="1.55" fill="#e9c45e" opacity="0.79"></circle><circle cx="289.9" cy="180.2" r="1.55" fill="#e9c45e" opacity="0.79"></circle><circle cx="289.8" cy="175.4" r="1.55" fill="#e9c45e" opacity="0.79"></circle><circle cx="289.8" cy="170.7" r="1.55" fill="#e9c45e" opacity="0.78"></circle><circle cx="286.5" cy="364.3" r="1.55" fill="#e9c45e" opacity="0.11"></circle><circle cx="287.0" cy="359.8" r="1.55" fill="#e9c45e" opacity="0.16"></circle><circle cx="287.4" cy="355.3" r="1.55" fill="#e9c45e" opacity="0.26"></circle><circle cx="287.8" cy="350.8" r="1.55" fill="#e9c45e" opacity="0.36"></circle><circle cx="288.2" cy="346.3" r="1.55" fill="#e9c45e" opacity="0.46"></circle><circle cx="288.6" cy="341.8" r="1.55" fill="#e9c45e" opacity="0.56"></circle><circle cx="289.0" cy="337.2" r="1.55" fill="#e9c45e" opacity="0.66"></circle><circle cx="289.3" cy="332.6" r="1.55" fill="#e9c45e" opacity="0.76"></circle><circle cx="289.7" cy="328.0" r="1.55" fill="#e9c45e" opacity="0.77"></circle><circle cx="290.0" cy="323.4" r="1.55" fill="#e9c45e" opacity="0.77"></circle><circle cx="290.4" cy="318.7" r="1.55" fill="#e9c45e" opacity="0.78"></circle><circle cx="293.9" cy="247.5" r="1.55" fill="#e9c45e" opacity="0.79"></circle><circle cx="294.6" cy="204.2" r="1.55" fill="#e9c45e" opacity="0.79"></circle><circle cx="294.6" cy="199.4" r="1.55" fill="#e9c45e" opacity="0.79"></circle><circle cx="294.6" cy="194.6" r="1.55" fill="#e9c45e" opacity="0.79"></circle><circle cx="294.6" cy="189.8" r="1.55" fill="#e9c45e" opacity="0.79"></circle><circle cx="294.6" cy="185.0" r="1.55" fill="#e9c45e" opacity="0.79"></circle><circle cx="294.6" cy="180.3" r="1.55" fill="#e9c45e" opacity="0.79"></circle><circle cx="294.6" cy="175.5" r="1.55" fill="#e9c45e" opacity="0.78"></circle><circle cx="294.5" cy="170.7" r="1.55" fill="#e9c45e" opacity="0.78"></circle><circle cx="290.7" cy="364.4" r="1.55" fill="#e9c45e" opacity="0.11"></circle><circle cx="291.1" cy="359.9" r="1.55" fill="#e9c45e" opacity="0.11"></circle><circle cx="291.6" cy="355.4" r="1.55" fill="#e9c45e" opacity="0.21"></circle><circle cx="292.0" cy="350.9" r="1.55" fill="#e9c45e" opacity="0.31"></circle><circle cx="292.5" cy="346.4" r="1.55" fill="#e9c45e" opacity="0.40"></circle><circle cx="292.9" cy="341.9" r="1.55" fill="#e9c45e" opacity="0.50"></circle><circle cx="293.3" cy="337.3" r="1.55" fill="#e9c45e" opacity="0.60"></circle><circle cx="293.7" cy="332.7" r="1.55" fill="#e9c45e" opacity="0.70"></circle><circle cx="294.0" cy="328.1" r="1.55" fill="#e9c45e" opacity="0.77"></circle><circle cx="294.4" cy="323.5" r="1.55" fill="#e9c45e" opacity="0.77"></circle><circle cx="294.8" cy="318.8" r="1.55" fill="#e9c45e" opacity="0.77"></circle><circle cx="295.1" cy="314.2" r="1.55" fill="#e9c45e" opacity="0.78"></circle><circle cx="298.5" cy="247.6" r="1.55" fill="#e9c45e" opacity="0.79"></circle><circle cx="299.4" cy="194.7" r="1.55" fill="#e9c45e" opacity="0.79"></circle><circle cx="299.4" cy="189.9" r="1.55" fill="#e9c45e" opacity="0.79"></circle><circle cx="299.4" cy="185.1" r="1.55" fill="#e9c45e" opacity="0.79"></circle><circle cx="299.3" cy="180.4" r="1.55" fill="#e9c45e" opacity="0.78"></circle><circle cx="295.3" cy="360.0" r="1.55" fill="#e9c45e" opacity="0.11"></circle><circle cx="295.8" cy="355.5" r="1.55" fill="#e9c45e" opacity="0.16"></circle><circle cx="296.2" cy="351.0" r="1.55" fill="#e9c45e" opacity="0.25"></circle><circle cx="296.7" cy="346.5" r="1.55" fill="#e9c45e" opacity="0.35"></circle><circle cx="297.1" cy="342.0" r="1.55" fill="#e9c45e" opacity="0.44"></circle><circle cx="297.6" cy="337.4" r="1.55" fill="#e9c45e" opacity="0.54"></circle><circle cx="298.0" cy="332.8" r="1.55" fill="#e9c45e" opacity="0.63"></circle><circle cx="298.4" cy="328.2" r="1.55" fill="#e9c45e" opacity="0.73"></circle><circle cx="298.8" cy="323.6" r="1.55" fill="#e9c45e" opacity="0.77"></circle><circle cx="299.2" cy="318.9" r="1.55" fill="#e9c45e" opacity="0.77"></circle><circle cx="299.5" cy="314.3" r="1.55" fill="#e9c45e" opacity="0.77"></circle><circle cx="303.2" cy="247.7" r="1.55" fill="#e9c45e" opacity="0.79"></circle><circle cx="299.4" cy="360.1" r="1.55" fill="#e9c45e" opacity="0.11"></circle><circle cx="299.9" cy="355.6" r="1.55" fill="#e9c45e" opacity="0.11"></circle><circle cx="300.4" cy="351.1" r="1.55" fill="#e9c45e" opacity="0.20"></circle><circle cx="300.9" cy="346.6" r="1.55" fill="#e9c45e" opacity="0.29"></circle><circle cx="301.4" cy="342.1" r="1.55" fill="#e9c45e" opacity="0.38"></circle><circle cx="301.9" cy="337.5" r="1.55" fill="#e9c45e" opacity="0.48"></circle><circle cx="302.3" cy="332.9" r="1.55" fill="#e9c45e" opacity="0.57"></circle><circle cx="302.7" cy="328.3" r="1.55" fill="#e9c45e" opacity="0.66"></circle><circle cx="303.1" cy="323.7" r="1.55" fill="#e9c45e" opacity="0.75"></circle><circle cx="303.5" cy="319.0" r="1.55" fill="#e9c45e" opacity="0.77"></circle><circle cx="303.9" cy="314.4" r="1.55" fill="#e9c45e" opacity="0.77"></circle><circle cx="304.3" cy="309.7" r="1.55" fill="#e9c45e" opacity="0.77"></circle><circle cx="307.8" cy="247.8" r="1.55" fill="#e9c45e" opacity="0.79"></circle><circle cx="308.8" cy="190.1" r="1.55" fill="#e9c45e" opacity="0.78"></circle><circle cx="304.1" cy="355.7" r="1.55" fill="#e9c45e" opacity="0.11"></circle><circle cx="304.6" cy="351.2" r="1.55" fill="#e9c45e" opacity="0.14"></circle><circle cx="305.1" cy="346.7" r="1.55" fill="#e9c45e" opacity="0.23"></circle><circle cx="305.6" cy="342.2" r="1.55" fill="#e9c45e" opacity="0.32"></circle><circle cx="306.1" cy="337.6" r="1.55" fill="#e9c45e" opacity="0.41"></circle><circle cx="306.6" cy="333.0" r="1.55" fill="#e9c45e" opacity="0.50"></circle><circle cx="307.1" cy="328.4" r="1.55" fill="#e9c45e" opacity="0.59"></circle><circle cx="307.5" cy="323.8" r="1.55" fill="#e9c45e" opacity="0.67"></circle><circle cx="307.9" cy="319.2" r="1.55" fill="#e9c45e" opacity="0.76"></circle><circle cx="308.3" cy="314.5" r="1.55" fill="#e9c45e" opacity="0.77"></circle><circle cx="308.7" cy="309.8" r="1.55" fill="#e9c45e" opacity="0.77"></circle><circle cx="312.4" cy="247.9" r="1.55" fill="#e9c45e" opacity="0.78"></circle><circle cx="313.2" cy="219.1" r="1.55" fill="#e9c45e" opacity="0.78"></circle><circle cx="313.3" cy="214.3" r="1.55" fill="#e9c45e" opacity="0.78"></circle><circle cx="313.4" cy="209.4" r="1.55" fill="#e9c45e" opacity="0.78"></circle><circle cx="313.4" cy="204.6" r="1.55" fill="#e9c45e" opacity="0.78"></circle><circle cx="313.5" cy="199.8" r="1.55" fill="#e9c45e" opacity="0.78"></circle><circle cx="313.5" cy="195.0" r="1.55" fill="#e9c45e" opacity="0.78"></circle><circle cx="313.5" cy="190.3" r="1.55" fill="#e9c45e" opacity="0.78"></circle><circle cx="312.8" cy="152.3" r="1.55" fill="#e9c45e" opacity="0.77"></circle><circle cx="312.7" cy="147.6" r="1.55" fill="#e9c45e" opacity="0.77"></circle><circle cx="312.5" cy="143.0" r="1.55" fill="#e9c45e" opacity="0.72"></circle><circle cx="312.3" cy="138.3" r="1.55" fill="#e9c45e" opacity="0.63"></circle><circle cx="312.1" cy="133.7" r="1.55" fill="#e9c45e" opacity="0.55"></circle><circle cx="311.9" cy="129.1" r="1.55" fill="#e9c45e" opacity="0.46"></circle><circle cx="311.7" cy="124.5" r="1.55" fill="#e9c45e" opacity="0.37"></circle><circle cx="311.5" cy="119.9" r="1.55" fill="#e9c45e" opacity="0.28"></circle><circle cx="308.8" cy="351.4" r="1.55" fill="#e9c45e" opacity="0.11"></circle><circle cx="309.3" cy="346.8" r="1.55" fill="#e9c45e" opacity="0.17"></circle><circle cx="309.9" cy="342.3" r="1.55" fill="#e9c45e" opacity="0.26"></circle><circle cx="310.4" cy="337.7" r="1.55" fill="#e9c45e" opacity="0.34"></circle><circle cx="310.9" cy="333.2" r="1.55" fill="#e9c45e" opacity="0.43"></circle><circle cx="311.4" cy="328.5" r="1.55" fill="#e9c45e" opacity="0.51"></circle><circle cx="311.8" cy="323.9" r="1.55" fill="#e9c45e" opacity="0.60"></circle><circle cx="312.3" cy="319.3" r="1.55" fill="#e9c45e" opacity="0.68"></circle><circle cx="312.7" cy="314.6" r="1.55" fill="#e9c45e" opacity="0.76"></circle><circle cx="313.1" cy="309.9" r="1.55" fill="#e9c45e" opacity="0.77"></circle><circle cx="313.5" cy="305.3" r="1.55" fill="#e9c45e" opacity="0.77"></circle><circle cx="317.0" cy="248.1" r="1.55" fill="#e9c45e" opacity="0.78"></circle><circle cx="317.8" cy="224.0" r="1.55" fill="#e9c45e" opacity="0.78"></circle><circle cx="317.9" cy="219.2" r="1.55" fill="#e9c45e" opacity="0.78"></circle><circle cx="318.0" cy="214.4" r="1.55" fill="#e9c45e" opacity="0.78"></circle><circle cx="318.0" cy="209.6" r="1.55" fill="#e9c45e" opacity="0.78"></circle><circle cx="318.1" cy="204.8" r="1.55" fill="#e9c45e" opacity="0.78"></circle><circle cx="318.1" cy="200.0" r="1.55" fill="#e9c45e" opacity="0.78"></circle><circle cx="318.1" cy="195.2" r="1.55" fill="#e9c45e" opacity="0.78"></circle><circle cx="317.5" cy="152.4" r="1.55" fill="#e9c45e" opacity="0.77"></circle><circle cx="317.3" cy="147.8" r="1.55" fill="#e9c45e" opacity="0.72"></circle><circle cx="317.1" cy="143.1" r="1.55" fill="#e9c45e" opacity="0.64"></circle><circle cx="316.9" cy="138.4" r="1.55" fill="#e9c45e" opacity="0.55"></circle><circle cx="316.7" cy="133.8" r="1.55" fill="#e9c45e" opacity="0.47"></circle><circle cx="316.5" cy="129.2" r="1.55" fill="#e9c45e" opacity="0.38"></circle><circle cx="316.3" cy="124.6" r="1.55" fill="#e9c45e" opacity="0.30"></circle><circle cx="316.0" cy="120.0" r="1.55" fill="#e9c45e" opacity="0.21"></circle><circle cx="315.7" cy="115.5" r="1.55" fill="#e9c45e" opacity="0.12"></circle><circle cx="315.4" cy="110.9" r="1.55" fill="#e9c45e" opacity="0.11"></circle><circle cx="313.0" cy="351.5" r="1.55" fill="#e9c45e" opacity="0.11"></circle><circle cx="313.5" cy="347.0" r="1.55" fill="#e9c45e" opacity="0.11"></circle><circle cx="314.1" cy="342.4" r="1.55" fill="#e9c45e" opacity="0.19"></circle><circle cx="314.6" cy="337.9" r="1.55" fill="#e9c45e" opacity="0.28"></circle><circle cx="315.1" cy="333.3" r="1.55" fill="#e9c45e" opacity="0.36"></circle><circle cx="315.7" cy="328.7" r="1.55" fill="#e9c45e" opacity="0.44"></circle><circle cx="316.1" cy="324.1" r="1.55" fill="#e9c45e" opacity="0.52"></circle><circle cx="316.6" cy="319.4" r="1.55" fill="#e9c45e" opacity="0.60"></circle><circle cx="317.1" cy="314.8" r="1.55" fill="#e9c45e" opacity="0.68"></circle><circle cx="317.5" cy="310.1" r="1.55" fill="#e9c45e" opacity="0.75"></circle><circle cx="317.9" cy="305.4" r="1.55" fill="#e9c45e" opacity="0.77"></circle><circle cx="318.3" cy="300.7" r="1.55" fill="#e9c45e" opacity="0.77"></circle><circle cx="321.6" cy="248.2" r="1.55" fill="#e9c45e" opacity="0.78"></circle><circle cx="322.6" cy="214.5" r="1.55" fill="#e9c45e" opacity="0.78"></circle><circle cx="322.7" cy="209.7" r="1.55" fill="#e9c45e" opacity="0.78"></circle><circle cx="322.7" cy="204.9" r="1.55" fill="#e9c45e" opacity="0.78"></circle><circle cx="321.9" cy="147.9" r="1.55" fill="#e9c45e" opacity="0.63"></circle><circle cx="321.7" cy="143.2" r="1.55" fill="#e9c45e" opacity="0.55"></circle><circle cx="321.5" cy="138.6" r="1.55" fill="#e9c45e" opacity="0.47"></circle><circle cx="321.3" cy="133.9" r="1.55" fill="#e9c45e" opacity="0.39"></circle><circle cx="321.1" cy="129.3" r="1.55" fill="#e9c45e" opacity="0.31"></circle><circle cx="320.8" cy="124.7" r="1.55" fill="#e9c45e" opacity="0.23"></circle><circle cx="320.5" cy="120.2" r="1.55" fill="#e9c45e" opacity="0.14"></circle><circle cx="320.3" cy="115.6" r="1.55" fill="#e9c45e" opacity="0.11"></circle><circle cx="317.7" cy="347.1" r="1.55" fill="#e9c45e" opacity="0.11"></circle><circle cx="318.3" cy="342.6" r="1.55" fill="#e9c45e" opacity="0.12"></circle><circle cx="318.8" cy="338.0" r="1.55" fill="#e9c45e" opacity="0.21"></circle><circle cx="319.4" cy="333.4" r="1.55" fill="#e9c45e" opacity="0.29"></circle><circle cx="319.9" cy="328.8" r="1.55" fill="#e9c45e" opacity="0.37"></circle><circle cx="320.4" cy="324.2" r="1.55" fill="#e9c45e" opacity="0.44"></circle><circle cx="320.9" cy="319.5" r="1.55" fill="#e9c45e" opacity="0.52"></circle><circle cx="321.4" cy="314.9" r="1.55" fill="#e9c45e" opacity="0.59"></circle><circle cx="321.9" cy="310.2" r="1.55" fill="#e9c45e" opacity="0.67"></circle><circle cx="322.3" cy="305.5" r="1.55" fill="#e9c45e" opacity="0.74"></circle><circle cx="322.7" cy="300.8" r="1.55" fill="#e9c45e" opacity="0.77"></circle><circle cx="326.2" cy="248.4" r="1.55" fill="#e9c45e" opacity="0.78"></circle><circle cx="326.5" cy="148.0" r="1.55" fill="#e9c45e" opacity="0.55"></circle><circle cx="326.3" cy="143.4" r="1.55" fill="#e9c45e" opacity="0.47"></circle><circle cx="326.1" cy="138.7" r="1.55" fill="#e9c45e" opacity="0.39"></circle><circle cx="325.9" cy="134.1" r="1.55" fill="#e9c45e" opacity="0.31"></circle><circle cx="325.6" cy="129.5" r="1.55" fill="#e9c45e" opacity="0.23"></circle><circle cx="325.3" cy="124.9" r="1.55" fill="#e9c45e" opacity="0.15"></circle><circle cx="325.1" cy="120.3" r="1.55" fill="#e9c45e" opacity="0.11"></circle><circle cx="322.5" cy="342.7" r="1.55" fill="#e9c45e" opacity="0.11"></circle><circle cx="323.1" cy="338.1" r="1.55" fill="#e9c45e" opacity="0.13"></circle><circle cx="323.6" cy="333.5" r="1.55" fill="#e9c45e" opacity="0.21"></circle><circle cx="324.2" cy="328.9" r="1.55" fill="#e9c45e" opacity="0.29"></circle><circle cx="324.7" cy="324.3" r="1.55" fill="#e9c45e" opacity="0.36"></circle><circle cx="325.2" cy="319.7" r="1.55" fill="#e9c45e" opacity="0.44"></circle><circle cx="325.7" cy="315.0" r="1.55" fill="#e9c45e" opacity="0.51"></circle><circle cx="326.2" cy="310.4" r="1.55" fill="#e9c45e" opacity="0.58"></circle><circle cx="326.7" cy="305.7" r="1.55" fill="#e9c45e" opacity="0.65"></circle><circle cx="327.1" cy="301.0" r="1.55" fill="#e9c45e" opacity="0.71"></circle><circle cx="327.6" cy="296.2" r="1.55" fill="#e9c45e" opacity="0.77"></circle><circle cx="330.8" cy="248.5" r="1.55" fill="#e9c45e" opacity="0.78"></circle><circle cx="330.9" cy="143.5" r="1.55" fill="#e9c45e" opacity="0.38"></circle><circle cx="330.6" cy="138.9" r="1.55" fill="#e9c45e" opacity="0.31"></circle><circle cx="330.4" cy="134.2" r="1.55" fill="#e9c45e" opacity="0.23"></circle><circle cx="330.1" cy="129.6" r="1.55" fill="#e9c45e" opacity="0.16"></circle><circle cx="329.9" cy="125.0" r="1.55" fill="#e9c45e" opacity="0.11"></circle><circle cx="327.2" cy="338.3" r="1.55" fill="#e9c45e" opacity="0.11"></circle><circle cx="327.8" cy="333.7" r="1.55" fill="#e9c45e" opacity="0.14"></circle><circle cx="328.4" cy="329.1" r="1.55" fill="#e9c45e" opacity="0.21"></circle><circle cx="329.0" cy="324.5" r="1.55" fill="#e9c45e" opacity="0.28"></circle><circle cx="329.5" cy="319.8" r="1.55" fill="#e9c45e" opacity="0.35"></circle><circle cx="330.1" cy="315.2" r="1.55" fill="#e9c45e" opacity="0.42"></circle><circle cx="330.6" cy="310.5" r="1.55" fill="#e9c45e" opacity="0.49"></circle><circle cx="331.0" cy="305.8" r="1.55" fill="#e9c45e" opacity="0.55"></circle><circle cx="331.5" cy="301.1" r="1.55" fill="#e9c45e" opacity="0.61"></circle><circle cx="332.0" cy="296.4" r="1.55" fill="#e9c45e" opacity="0.67"></circle><circle cx="332.4" cy="291.7" r="1.55" fill="#e9c45e" opacity="0.73"></circle><circle cx="335.3" cy="248.7" r="1.55" fill="#e9c45e" opacity="0.78"></circle><circle cx="334.9" cy="134.4" r="1.55" fill="#e9c45e" opacity="0.15"></circle><circle cx="334.7" cy="129.8" r="1.55" fill="#e9c45e" opacity="0.11"></circle><circle cx="334.4" cy="125.2" r="1.55" fill="#e9c45e" opacity="0.11"></circle><circle cx="332.0" cy="333.8" r="1.55" fill="#e9c45e" opacity="0.11"></circle><circle cx="332.6" cy="329.2" r="1.55" fill="#e9c45e" opacity="0.13"></circle><circle cx="333.2" cy="324.6" r="1.55" fill="#e9c45e" opacity="0.20"></circle><circle cx="333.8" cy="320.0" r="1.55" fill="#e9c45e" opacity="0.27"></circle><circle cx="334.3" cy="315.3" r="1.55" fill="#e9c45e" opacity="0.33"></circle><circle cx="334.9" cy="310.7" r="1.55" fill="#e9c45e" opacity="0.40"></circle><circle cx="335.4" cy="306.0" r="1.55" fill="#e9c45e" opacity="0.46"></circle><circle cx="335.9" cy="301.3" r="1.55" fill="#e9c45e" opacity="0.52"></circle><circle cx="336.3" cy="296.5" r="1.55" fill="#e9c45e" opacity="0.58"></circle><circle cx="336.8" cy="291.8" r="1.55" fill="#e9c45e" opacity="0.63"></circle><circle cx="337.2" cy="287.1" r="1.55" fill="#e9c45e" opacity="0.68"></circle><circle cx="336.8" cy="329.4" r="1.55" fill="#e9c45e" opacity="0.11"></circle><circle cx="337.5" cy="324.8" r="1.55" fill="#e9c45e" opacity="0.12"></circle><circle cx="338.0" cy="320.1" r="1.55" fill="#e9c45e" opacity="0.18"></circle><circle cx="338.6" cy="315.5" r="1.55" fill="#e9c45e" opacity="0.25"></circle><circle cx="339.2" cy="310.8" r="1.55" fill="#e9c45e" opacity="0.31"></circle><circle cx="339.7" cy="306.1" r="1.55" fill="#e9c45e" opacity="0.37"></circle><circle cx="340.2" cy="301.4" r="1.55" fill="#e9c45e" opacity="0.42"></circle><circle cx="340.7" cy="296.7" r="1.55" fill="#e9c45e" opacity="0.48"></circle><circle cx="341.1" cy="292.0" r="1.55" fill="#e9c45e" opacity="0.53"></circle><circle cx="341.6" cy="287.2" r="1.55" fill="#e9c45e" opacity="0.58"></circle><circle cx="341.7" cy="324.9" r="1.55" fill="#e9c45e" opacity="0.11"></circle><circle cx="342.3" cy="320.3" r="1.55" fill="#e9c45e" opacity="0.11"></circle><circle cx="342.9" cy="315.7" r="1.55" fill="#e9c45e" opacity="0.16"></circle><circle cx="343.4" cy="311.0" r="1.55" fill="#e9c45e" opacity="0.22"></circle><circle cx="344.0" cy="306.3" r="1.55" fill="#e9c45e" opacity="0.27"></circle><circle cx="344.5" cy="301.6" r="1.55" fill="#e9c45e" opacity="0.33"></circle><circle cx="345.0" cy="296.9" r="1.55" fill="#e9c45e" opacity="0.38"></circle><circle cx="345.5" cy="292.2" r="1.55" fill="#e9c45e" opacity="0.43"></circle><circle cx="345.9" cy="287.4" r="1.55" fill="#e9c45e" opacity="0.47"></circle><circle cx="346.4" cy="282.7" r="1.55" fill="#e9c45e" opacity="0.52"></circle><circle cx="346.5" cy="320.5" r="1.55" fill="#e9c45e" opacity="0.11"></circle><circle cx="347.1" cy="315.8" r="1.55" fill="#e9c45e" opacity="0.11"></circle><circle cx="347.7" cy="311.2" r="1.55" fill="#e9c45e" opacity="0.13"></circle><circle cx="348.2" cy="306.5" r="1.55" fill="#e9c45e" opacity="0.18"></circle><circle cx="348.8" cy="301.8" r="1.55" fill="#e9c45e" opacity="0.23"></circle><circle cx="349.3" cy="297.1" r="1.55" fill="#e9c45e" opacity="0.28"></circle><circle cx="349.8" cy="292.3" r="1.55" fill="#e9c45e" opacity="0.33"></circle><circle cx="350.3" cy="287.6" r="1.55" fill="#e9c45e" opacity="0.37"></circle><circle cx="350.7" cy="282.8" r="1.55" fill="#e9c45e" opacity="0.41"></circle><circle cx="351.2" cy="278.1" r="1.55" fill="#e9c45e" opacity="0.45"></circle><circle cx="351.9" cy="311.3" r="1.55" fill="#e9c45e" opacity="0.11"></circle><circle cx="352.5" cy="306.7" r="1.55" fill="#e9c45e" opacity="0.11"></circle><circle cx="353.1" cy="302.0" r="1.55" fill="#e9c45e" opacity="0.14"></circle><circle cx="353.6" cy="297.2" r="1.55" fill="#e9c45e" opacity="0.18"></circle><circle cx="354.1" cy="292.5" r="1.55" fill="#e9c45e" opacity="0.23"></circle><circle cx="354.6" cy="287.8" r="1.55" fill="#e9c45e" opacity="0.27"></circle><circle cx="355.1" cy="283.0" r="1.55" fill="#e9c45e" opacity="0.31"></circle><circle cx="355.5" cy="278.3" r="1.55" fill="#e9c45e" opacity="0.34"></circle><circle cx="355.9" cy="273.5" r="1.55" fill="#e9c45e" opacity="0.37"></circle><circle cx="357.3" cy="302.1" r="1.55" fill="#e9c45e" opacity="0.11"></circle><circle cx="357.9" cy="297.4" r="1.55" fill="#e9c45e" opacity="0.11"></circle><circle cx="358.4" cy="292.7" r="1.55" fill="#e9c45e" opacity="0.13"></circle><circle cx="358.9" cy="288.0" r="1.55" fill="#e9c45e" opacity="0.17"></circle><circle cx="359.4" cy="283.2" r="1.55" fill="#e9c45e" opacity="0.20"></circle><circle cx="359.8" cy="278.5" r="1.55" fill="#e9c45e" opacity="0.24"></circle><circle cx="360.3" cy="273.7" r="1.55" fill="#e9c45e" opacity="0.27"></circle><circle cx="362.6" cy="292.9" r="1.55" fill="#e9c45e" opacity="0.11"></circle><circle cx="363.2" cy="288.2" r="1.55" fill="#e9c45e" opacity="0.11"></circle><circle cx="363.7" cy="283.4" r="1.55" fill="#e9c45e" opacity="0.11"></circle><circle cx="364.1" cy="278.7" r="1.55" fill="#e9c45e" opacity="0.13"></circle><circle cx="364.6" cy="273.9" r="1.55" fill="#e9c45e" opacity="0.16"></circle><circle cx="365.0" cy="269.1" r="1.55" fill="#e9c45e" opacity="0.19"></circle><circle cx="367.9" cy="283.6" r="1.55" fill="#e9c45e" opacity="0.11"></circle><circle cx="368.4" cy="278.9" r="1.55" fill="#e9c45e" opacity="0.11"></circle><circle cx="368.9" cy="274.1" r="1.55" fill="#e9c45e" opacity="0.11"></circle><circle cx="369.3" cy="269.3" r="1.55" fill="#e9c45e" opacity="0.11"></circle><circle cx="372.3" cy="216.5" r="1.55" fill="#e9c45e" opacity="0.13"></circle><circle cx="372.4" cy="211.7" r="1.55" fill="#e9c45e" opacity="0.11"></circle><circle cx="372.5" cy="206.9" r="1.55" fill="#e9c45e" opacity="0.11"></circle><circle cx="376.5" cy="221.5" r="1.55" fill="#e9c45e" opacity="0.11"></circle><circle cx="376.6" cy="216.7" r="1.55" fill="#e9c45e" opacity="0.11"></circle><circle cx="376.7" cy="211.9" r="1.55" fill="#e9c45e" opacity="0.11"></circle></svg>